<?xml version="1.0" encoding="utf-8" ?>
<svg xmlns="http://www.w3.org/2000/svg" xmlns:xlink="http://www.w3.org/1999/xlink" width="32" height="32" viewBox="0 0 32 32">
	<defs>
		<clipPath id="clipPath1003810642">
			<path transform="matrix(1 0 0 1 0 0)" d="M0 0L32 0L32 32L0 32L0 0Z" fill-rule="nonzero"/>
		</clipPath>
	</defs>
	<g clip-path="url(#clipPath1003810642)">
		<defs>
			<clipPath id="clipPath5201569758">
				<path transform="matrix(1 0 0 1 -0 -0)" d="M0 0L32 0L32 32L0 32L0 0Z" fill-rule="nonzero"/>
			</clipPath>
		</defs>
		<g clip-path="url(#clipPath5201569758)">
			<path transform="matrix(1 0 0 1 3.32904 4.10938)" d="M2.01908 22.7812L23.3228 22.7812Q23.6261 22.7812 23.8258 22.6679Q24.0254 22.5545 24.181 22.294Q24.3366 22.0334 24.3417 21.8039Q24.3468 21.5744 24.203 21.3072L13.5517 1.52597Q13.4129 1.26829 13.1729 1.13109Q12.9437 1 12.671 1Q12.3982 1 12.169 1.13109Q11.929 1.26829 11.7901 1.52619L1.13893 21.3072Q0.99508 21.5744 1.00018 21.8039Q1.00529 22.0334 1.16089 22.294Q1.31649 22.5545 1.51614 22.6679Q1.71578 22.7812 2.01926 22.7812L2.01908 22.7812ZM2.01891 24.7812Q1.18752 24.7811 0.528792 24.4072Q-0.129939 24.0332 -0.556212 23.3194Q-0.982486 22.6056 -0.999323 21.8484Q-1.01616 21.0911 -0.622015 20.359L10.0294 0.577565Q10.4397 -0.183989 11.1763 -0.605152Q11.8669 -1 12.671 -1Q13.4751 -1 14.1657 -0.605152Q14.9023 -0.183989 15.3127 0.577782L25.964 20.3591Q26.3581 21.0911 26.3412 21.8484Q26.3244 22.6057 25.8981 23.3194Q25.4719 24.0332 24.8131 24.4072Q24.1544 24.7811 23.3228 24.7812L2.01908 24.7812L2.01891 24.7812Z" fill-rule="nonzero" fill="rgb(220, 53, 69)"/>
			<path transform="matrix(1 0 0 1 15.641 11.84)" d="M0.999174 0.324897L1.35792 7.9499L0.35903 7.99689L-0.639868 7.94996L-0.281743 0.328085Q-0.294332 0.605416 -0.102661 0.804039Q0.0890098 1.00266 0.36502 0.999973Q0.635725 0.997325 0.822628 0.801535Q1.00952 0.605755 0.999608 0.335259L0.999174 0.324897ZM-0.999049 0.408528Q-1.02006 -0.164615 -0.624035 -0.579466Q-0.228008 -0.994323 0.345542 -0.999933Q0.93038 -1.00563 1.33651 -0.584766Q1.74265 -0.163903 1.71605 0.421955L1.35793 8.04383Q1.35358 8.13629 1.33234 8.22639Q1.3111 8.31648 1.27368 8.40115Q1.23626 8.48581 1.18393 8.56217Q1.13161 8.63853 1.06616 8.70398Q1.00071 8.76943 0.924354 8.82176Q0.848 8.87409 0.763338 8.91152Q0.678676 8.94894 0.588583 8.97019Q0.49849 8.99144 0.406027 8.99579Q0.307644 9.00042 0.210249 8.98576Q0.112854 8.97111 0.0201889 8.93774Q-0.0724761 8.90437 -0.15685 8.85356Q-0.241224 8.80275 -0.314064 8.73645Q-0.386904 8.67016 -0.445411 8.59093Q-0.503918 8.5117 -0.545844 8.42257Q-0.58777 8.33345 -0.611503 8.23786Q-0.635236 8.14227 -0.639865 8.04389L-0.998616 0.418891L-0.999049 0.408528Z" fill-rule="nonzero" fill="rgb(220, 53, 69)"/>
			<path transform="matrix(1 0 0 1 14.75 22.3281)" d="M1.25 2.5C0.904821 2.5 0.610193 2.37796 0.366116 2.13388C0.122038 1.88981 -6.35783e-07 1.59518 0 1.25C-6.35783e-07 0.904822 0.122038 0.610194 0.366116 0.366116C0.610193 0.122039 0.904821 0 1.25 0C1.59518 0 1.8898 0.122038 2.13388 0.366114C2.37796 0.610191 2.5 0.904819 2.5 1.25C2.5 1.59517 2.37796 1.8898 2.13388 2.13388C1.8898 2.37796 1.59518 2.5 1.25 2.5Z" fill-rule="nonzero" fill="rgb(220, 53, 69)"/>
		</g>
	</g>
</svg>
