<?xml version="1.0" encoding="utf-8" ?>
<svg xmlns="http://www.w3.org/2000/svg" xmlns:xlink="http://www.w3.org/1999/xlink" width="32" height="25.6" viewBox="0 0 32 25.6">
	<defs>
		<clipPath id="clipPath3489928601">
			<path transform="matrix(1 0 0 1 0 -1.14441e-05)" d="M0 0L32 0L32 25.6L0 25.6L0 0Z" fill-rule="nonzero"/>
		</clipPath>
	</defs>
	<g clip-path="url(#clipPath3489928601)">
		<defs>
			<clipPath id="clipPath2717587875">
				<path transform="matrix(1 0 0 1 0 -1.14441e-05)" d="M0 0L32 0L32 25.6L0 25.6L0 0Z" fill-rule="nonzero"/>
			</clipPath>
		</defs>
		<g clip-path="url(#clipPath2717587875)">
			<path transform="matrix(1 0 0 1 0 3.83998)" d="M31.058 0.8984C29.1185 0.2476 27.1775 7.62939e-08 25.2375 7.62939e-08C19.079 -0.000399933 12.921 2.4936 6.7625 2.4936C5.218 2.4936 3.6745 2.3368 2.13 1.9448C1.9565 1.9008 1.7825 1.88 1.6125 1.88C0.752 1.88 0 2.4128 0 3.1524L0 15.8428C0 16.348 0.3615 16.8268 0.942 17.0212C2.8815 17.6724 4.8225 17.92 6.7625 17.92C12.921 17.92 19.0795 15.426 25.238 15.426C26.7825 15.426 28.326 15.5828 29.8705 15.9748C30.044 16.0188 30.218 16.0396 30.388 16.0396C31.2485 16.0396 32.0005 15.5068 32.0005 14.7672L32.0005 2.0772C32 1.5716 31.6385 1.0932 31.058 0.8984ZM2.4 4.0088C3.406 4.2104 4.456 4.3116 5.536 4.366C5.242 5.5416 3.95 6.4276 2.4 6.4276L2.4 4.0088ZM2.4 15.4088L2.4 13.4976C4.1185 13.4976 5.509 14.5884 5.5855 15.9536C4.459 15.8812 3.406 15.7012 2.4 15.4088ZM16 12.8C13.7905 12.8 12 11.0804 12 8.96C12 6.8392 13.791 5.12 16 5.12C18.209 5.12 20 6.8392 20 8.96C20 11.0812 18.2085 12.8 16 12.8ZM29.6 13.9112C28.724 13.7356 27.8145 13.6372 26.884 13.5736C27.1775 12.5304 28.259 11.7384 29.6 11.6024L29.6 13.9112ZM29.6 4.4668C28.0555 4.3104 26.857 3.2788 26.8095 2.0048C27.7865 2.0916 28.714 2.254 29.6 2.5112L29.6 4.4668Z" fill-rule="nonzero" fill="rgb(253, 126, 20)"/>
		</g>
	</g>
</svg>
