<?xml version="1.0" encoding="utf-8" ?>
<svg xmlns="http://www.w3.org/2000/svg" xmlns:xlink="http://www.w3.org/1999/xlink" width="80" height="80" viewBox="0 0 80 80">
	<path transform="matrix(1 0 0 1 0 0)" d="M40 0C17.9086 0 0 17.9086 0 40L0 40.06C0 62.1514 17.8486 80 39.94 80L40 80C62.0914 80 80 62.1514 80 40.06L80 40C80 17.9086 62.1514 0 40.06 0L40 0Z" fill-rule="nonzero" fill="rgb(219, 234, 254)" opacity="0.5"/>
	<defs>
		<clipPath id="clipPath8369327869">
			<path transform="matrix(1 0 0 1 16 16)" d="M0 0L48 0L48 48L0 48L0 0Z" fill-rule="nonzero"/>
		</clipPath>
	</defs>
	<g clip-path="url(#clipPath8369327869)">
		<defs>
			<clipPath id="clipPath4533172294">
				<path transform="matrix(1 0 0 1 16 16)" d="M0 0L48 0L48 48L0 48L0 0Z" fill-rule="nonzero"/>
			</clipPath>
		</defs>
		<g clip-path="url(#clipPath4533172294)">
			<path transform="matrix(1 0 0 1 19 20.5)" d="M32.8566 -1.5Q34.8102 -1.5 36.4468 -0.501745Q38.1153 0.516004 38.9013 2.23101L42.9603 11.0934Q43.6305 12.5546 43.4696 14.1243Q43.3175 15.6091 42.4584 16.8729Q41.6843 18.0118 40.5 18.728L40.5 37.5L42 37.5C42.8284 37.5 43.5 38.1716 43.5 39C43.5 39.8284 42.8284 40.5 42 40.5L0 40.5C-0.82842 40.5 -1.5 39.8284 -1.5 39C-1.5 38.1716 -0.82842 37.5 0 37.5L1.5 37.5L1.5 18.7291Q0.315745 18.0132 -0.458429 16.8743Q-1.31748 15.6105 -1.46963 14.1253Q-1.63045 12.5555 -0.960641 11.0941L3.09888 2.23069Q3.8847 0.516005 5.55323 -0.501745Q7.18979 -1.5 9.14344 -1.5L32.8566 -1.5ZM4.5 19.6728L4.5 37.5L22.5 37.5L22.5 24.75Q22.5 23.1967 23.5984 22.0984Q24.6967 21 26.25 21L32.25 21Q33.8033 21 34.9016 22.0983Q36 23.1967 36 24.75L36 37.5L37.5 37.5L37.5 19.6727Q37.3607 19.6824 37.2195 19.6868Q37.1962 19.6875 37.1728 19.6875L36.99 19.6875Q35.6244 19.6875 34.3721 19.2009Q33.1522 18.7269 32.2064 17.8581Q31.9133 17.5887 31.6601 17.2941Q31.4069 17.5888 31.1136 17.8582Q30.1677 18.727 28.9477 19.201Q27.6953 19.6875 26.3297 19.6875Q24.958 19.6875 23.6863 19.1664Q22.4798 18.672 21.5329 17.7807Q21.266 17.5295 21.0322 17.2586Q20.767 17.5722 20.4569 17.8575Q19.5119 18.7267 18.2925 19.2008Q17.0407 19.6875 15.675 19.6875Q14.3033 19.6875 13.0315 19.1664Q11.8249 18.672 10.8779 17.7809Q10.5927 17.5125 10.3454 17.2219Q10.0973 17.5136 9.81114 17.7828Q8.86425 18.6735 7.65744 19.1673Q6.38619 19.6875 5.01469 19.6875L4.82719 19.6875Q4.80423 19.6875 4.78128 19.6868Q4.63971 19.6825 4.5 19.6728ZM33 37.5L33 24.75Q33 24.4393 32.7803 24.2197Q32.5607 24 32.25 24L26.25 24Q25.9393 24 25.7197 24.2197Q25.5 24.4393 25.5 24.75L25.5 37.5L33 37.5ZM31.6603 11.7909Q31.734 11.7909 31.8073 11.7982Q31.8807 11.8054 31.9529 11.8198Q32.0252 11.8341 32.0957 11.8555Q32.1663 11.8769 32.2343 11.9051Q32.3024 11.9333 32.3674 11.9681Q32.4324 12.0028 32.4937 12.0437Q32.5549 12.0847 32.6119 12.1314Q32.6689 12.1782 32.721 12.2303Q32.7731 12.2824 32.8198 12.3393Q32.8666 12.3963 32.9075 12.4576Q32.9485 12.5189 32.9832 12.5838Q33.0179 12.6488 33.0461 12.7169Q33.0743 12.785 33.0957 12.8555Q33.1171 12.926 33.1315 12.9983Q33.1459 13.0706 33.1531 13.1439Q33.1603 13.2172 33.1603 13.2909Q33.1603 13.9586 33.4417 14.5698Q33.7202 15.175 34.2361 15.6489Q34.7655 16.1353 35.4586 16.4046Q36.1867 16.6875 36.99 16.6875L37.1477 16.6875Q38.0589 16.6545 38.8173 16.2362Q39.5316 15.8421 39.9774 15.1864Q40.4104 14.5494 40.4853 13.8185Q40.5628 13.0621 40.2334 12.3441L36.1737 3.48024Q35.7701 2.59958 34.8846 2.0594Q33.9675 1.5 32.8566 1.5L9.14344 1.5Q8.03254 1.5 7.11545 2.0594Q6.22986 2.59958 5.82612 3.48056L1.76689 12.3434Q1.43721 13.0627 1.51475 13.8196Q1.58966 14.5508 2.02265 15.1878Q2.46829 15.8434 3.18236 16.237Q3.94063 16.6551 4.85189 16.6875L5.01469 16.6875Q5.79612 16.6875 6.52125 16.3908Q7.21368 16.1074 7.75573 15.5976Q8.28053 15.104 8.56628 14.4916Q8.84437 13.8956 8.84437 13.2909Q8.84437 13.2172 8.8516 13.1439Q8.85882 13.0706 8.8732 12.9983Q8.88757 12.926 8.90896 12.8555Q8.93036 12.785 8.95855 12.7169Q8.98676 12.6488 9.02149 12.5838Q9.05623 12.5189 9.09717 12.4576Q9.13811 12.3963 9.18486 12.3393Q9.23161 12.2824 9.28371 12.2303Q9.33582 12.1782 9.39279 12.1314Q9.44975 12.0847 9.51102 12.0437Q9.57229 12.0028 9.63728 11.9681Q9.70227 11.9333 9.77035 11.9051Q9.83843 11.8769 9.90895 11.8555Q9.97947 11.8341 10.0517 11.8198Q10.124 11.8054 10.1973 11.7982Q10.2707 11.7909 10.3444 11.7909Q10.4181 11.7909 10.4914 11.7982Q10.5647 11.8054 10.637 11.8198Q10.7093 11.8341 10.7798 11.8555Q10.8503 11.8769 10.9184 11.9051Q10.9865 11.9333 11.0515 11.9681Q11.1165 12.0028 11.1777 12.0437Q11.239 12.0847 11.296 12.1314Q11.3529 12.1782 11.405 12.2303Q11.4571 12.2824 11.5039 12.3393Q11.5506 12.3963 11.5916 12.4576Q11.6325 12.5189 11.6673 12.5838Q11.702 12.6488 11.7302 12.7169Q11.7584 12.785 11.7798 12.8555Q11.8012 12.926 11.8156 12.9983Q11.8299 13.0706 11.8372 13.1439Q11.8444 13.2172 11.8444 13.2909Q11.8444 13.8938 12.1224 14.4892Q12.4085 15.1018 12.9337 15.596Q13.4763 16.1066 14.1689 16.3904Q14.8941 16.6875 15.675 16.6875Q16.478 16.6875 17.2054 16.4047Q17.8974 16.1356 18.4259 15.6495Q18.9409 15.1758 19.219 14.5707Q19.5 13.9592 19.5 13.2909Q19.5 13.2172 19.5072 13.1439Q19.5144 13.0706 19.5288 12.9983Q19.5432 12.926 19.5646 12.8555Q19.586 12.785 19.6142 12.7169Q19.6424 12.6488 19.6771 12.5838Q19.7119 12.5189 19.7528 12.4576Q19.7937 12.3963 19.8405 12.3393Q19.8872 12.2824 19.9393 12.2303Q19.9914 12.1782 20.0484 12.1314Q20.1054 12.0847 20.1666 12.0437Q20.2279 12.0028 20.2929 11.9681Q20.3579 11.9333 20.426 11.9051Q20.4941 11.8769 20.5646 11.8555Q20.6351 11.8341 20.7074 11.8198Q20.7796 11.8054 20.853 11.7982Q20.9263 11.7909 21 11.7909Q21.0737 11.7909 21.147 11.7982Q21.2204 11.8054 21.2926 11.8198Q21.3649 11.8341 21.4354 11.8555Q21.5059 11.8769 21.574 11.9051Q21.6421 11.9333 21.7071 11.9681Q21.7721 12.0028 21.8334 12.0437Q21.8946 12.0847 21.9516 12.1314Q22.0086 12.1782 22.0607 12.2303Q22.1128 12.2824 22.1595 12.3393Q22.2063 12.3963 22.2472 12.4576Q22.2881 12.5189 22.3229 12.5838Q22.3576 12.6488 22.3858 12.7169Q22.414 12.785 22.4354 12.8555Q22.4568 12.926 22.4712 12.9983Q22.4856 13.0706 22.4928 13.1439Q22.5 13.2172 22.5 13.2909Q22.5 13.8939 22.778 14.4894Q23.064 15.102 23.589 15.5961Q24.1314 16.1066 24.8238 16.3904Q25.5488 16.6875 26.3297 16.6875Q27.133 16.6875 27.8613 16.4046Q28.5546 16.1353 29.0842 15.6487Q29.6002 15.1748 29.8789 14.5697Q30.1603 13.9585 30.1603 13.2909Q30.1603 13.2172 30.1675 13.1439Q30.1748 13.0706 30.1891 12.9983Q30.2035 12.926 30.2249 12.8555Q30.2463 12.785 30.2745 12.7169Q30.3027 12.6488 30.3374 12.5838Q30.3722 12.5189 30.4131 12.4576Q30.454 12.3963 30.5008 12.3393Q30.5475 12.2824 30.5997 12.2303Q30.6518 12.1782 30.7087 12.1314Q30.7657 12.0847 30.827 12.0437Q30.8882 12.0028 30.9532 11.9681Q31.0182 11.9333 31.0863 11.9051Q31.1544 11.8769 31.2249 11.8555Q31.2954 11.8341 31.3677 11.8198Q31.44 11.8054 31.5133 11.7982Q31.5866 11.7909 31.6603 11.7909ZM9.75 21L17.25 21Q18.8033 21 19.9016 22.0983Q21 23.1967 21 24.75L21 33Q21 33.0737 20.9928 33.147Q20.9856 33.2204 20.9712 33.2926Q20.9568 33.3649 20.9354 33.4354Q20.914 33.5059 20.8858 33.574Q20.8576 33.6421 20.8229 33.7071Q20.7881 33.7721 20.7472 33.8334Q20.7063 33.8946 20.6595 33.9516Q20.6128 34.0086 20.5607 34.0607Q20.5086 34.1128 20.4516 34.1595Q20.3946 34.2063 20.3334 34.2472Q20.2721 34.2881 20.2071 34.3229Q20.1421 34.3576 20.074 34.3858Q20.0059 34.414 19.9354 34.4354Q19.8649 34.4568 19.7926 34.4712Q19.7204 34.4856 19.647 34.4928Q19.5737 34.5 19.5 34.5L7.5 34.5Q7.42631 34.5 7.35297 34.4928Q7.27964 34.4856 7.20736 34.4712Q7.13509 34.4568 7.06457 34.4354Q6.99406 34.414 6.92597 34.3858Q6.85789 34.3576 6.7929 34.3229Q6.72792 34.2881 6.66664 34.2472Q6.60537 34.2063 6.54841 34.1595Q6.49145 34.1128 6.43934 34.0607Q6.38723 34.0086 6.34048 33.9516Q6.29374 33.8946 6.2528 33.8334Q6.21186 33.7721 6.17712 33.7071Q6.14238 33.6421 6.11418 33.574Q6.08598 33.5059 6.06459 33.4354Q6.0432 33.3649 6.02882 33.2926Q6.01445 33.2204 6.00722 33.147Q6 33.0737 6 33L6 24.75Q6 23.1967 7.09835 22.0984Q8.1967 21 9.75 21ZM9.75 24Q9.43934 24 9.21967 24.2197Q9 24.4393 9 24.75L9 31.5L18 31.5L18 24.75Q18 24.4393 17.7803 24.2197Q17.5607 24 17.25 24L9.75 24Z" fill-rule="evenodd" fill="rgb(37, 99, 235)"/>
		</g>
	</g>
</svg>
