<?xml version="1.0" encoding="utf-8" ?>
<svg xmlns="http://www.w3.org/2000/svg" xmlns:xlink="http://www.w3.org/1999/xlink" width="32" height="32" viewBox="0 0 32 32">
	<path transform="matrix(1 0 0 1 0 0)" d="M31.8438 11.5375L28.6812 2.05C28.275 0.825 27.1313 0 25.8375 0L17 0L17 12L31.9188 12C31.8938 11.8438 31.8938 11.6875 31.8438 11.5375ZM15 0L6.1625 0C4.86875 0 3.725 0.825 3.31875 2.05L0.15625 11.5375C0.10625 11.6875 0.10625 11.8438 0.08125 12L15 12L15 0ZM0 14L0 29C0 30.6562 1.34375 32 3 32L29 32C30.6562 32 32 30.6562 32 29L32 14L0 14Z" fill-rule="nonzero" fill="rgb(13, 110, 253)"/>
</svg>
