<?xml version="1.0" encoding="utf-8" ?>
<svg xmlns="http://www.w3.org/2000/svg" xmlns:xlink="http://www.w3.org/1999/xlink" width="32" height="32" viewBox="0 0 32 32">
	<defs>
		<clipPath id="clipPath3860022500">
			<path transform="matrix(1 0 0 1 0 0)" d="M0 0L32 0L32 32L0 32L0 0Z" fill-rule="nonzero"/>
		</clipPath>
	</defs>
	<g clip-path="url(#clipPath3860022500)">
		<defs>
			<clipPath id="clipPath5085081581">
				<path transform="matrix(1 0 0 1 -0 -0)" d="M0 0L32 0L32 32L0 32L0 0Z" fill-rule="nonzero"/>
			</clipPath>
		</defs>
		<g clip-path="url(#clipPath5085081581)">
			<path transform="matrix(1 0 0 1 4 -0.00168334)" d="M22.4 0.201683L20 3.00168L16.6 0.201683C16.4226 0.0672993 16.2226 0.000107346 16 0.000107346C15.7774 0.000107346 15.5774 0.0672993 15.4 0.201683L12 3.00168L8.6 0.201683C8.42257 0.0672991 8.22257 0.000106973 8 0.000106973C7.77743 0.000106973 7.57743 0.0672991 7.4 0.201683L4 3.00168L1.6 0.201683C0.9375 -0.292067 0 0.176683 0 1.00168L0 31.0017C0 31.8267 0.9375 32.2954 1.6 31.8017L4 29.0017L7.4 31.8017C7.57743 31.9361 7.77743 32.0033 8 32.0033C8.22257 32.0033 8.42257 31.9361 8.6 31.8017L12 29.0017L15.4 31.8017C15.5774 31.9361 15.7774 32.0033 16 32.0033C16.2226 32.0033 16.4226 31.9361 16.6 31.8017L20 29.0017L22.4 31.8017C23.0562 32.2954 24 31.8267 24 31.0017L24 1.00168C24 0.176683 23.0625 -0.292067 22.4 0.201683ZM20 22.5017C20 22.7767 19.775 23.0017 19.5 23.0017L4.5 23.0017C4.225 23.0017 4 22.7767 4 22.5017L4 21.5017C4 21.2267 4.225 21.0017 4.5 21.0017L19.5 21.0017C19.775 21.0017 20 21.2267 20 21.5017L20 22.5017ZM20 16.5017C20 16.7767 19.775 17.0017 19.5 17.0017L4.5 17.0017C4.225 17.0017 4 16.7767 4 16.5017L4 15.5017C4 15.2267 4.225 15.0017 4.5 15.0017L19.5 15.0017C19.775 15.0017 20 15.2267 20 15.5017L20 16.5017ZM20 10.5017C20 10.7767 19.775 11.0017 19.5 11.0017L4.5 11.0017C4.225 11.0017 4 10.7767 4 10.5017L4 9.50168C4 9.22668 4.225 9.00168 4.5 9.00168L19.5 9.00168C19.775 9.00168 20 9.22668 20 9.50168L20 10.5017Z" fill-rule="nonzero" fill="rgb(25, 135, 84)"/>
		</g>
	</g>
</svg>
